<?xml version="1.0" standalone="no"?>
<!DOCTYPE svg PUBLIC "-//W3C//DTD SVG 20010904//EN"
 "http://www.w3.org/TR/2001/REC-SVG-20010904/DTD/svg10.dtd">
<svg version="1.0" xmlns="http://www.w3.org/2000/svg"
 width="700.000000pt" height="700.000000pt" viewBox="0 0 700.000000 700.000000"
 preserveAspectRatio="xMidYMid meet">
<metadata>
Created by potrace 1.14, written by Peter Selinger 2001-2017
</metadata>
<g transform="translate(0.000000,700.000000) scale(0.100000,-0.100000)"
fill="#000000" stroke="none">
<path d="M2029 6463 c-12 -31 -107 -291 -114 -310 -3 -9 -59 -13 -216 -15
l-211 -3 171 -108 170 -109 -18 -46 c-30 -77 -99 -265 -106 -290 -6 -21 -3
-21 47 12 29 20 98 63 153 97 55 35 108 69 117 77 9 8 22 11 30 6 7 -4 67 -42
133 -84 66 -42 139 -89 162 -103 l42 -27 -29 83 c-17 45 -34 91 -39 102 -6 11
-15 38 -22 60 -6 22 -15 45 -20 50 -4 6 -9 23 -11 39 -3 27 6 34 163 135 l166
106 -211 3 -212 2 -63 175 c-35 96 -65 175 -68 175 -2 0 -8 -12 -14 -27z"/>
<path d="M5570 6020 c-107 -15 -136 -22 -239 -56 -147 -49 -329 -147 -440
-239 -146 -120 -271 -252 -406 -428 -20 -26 -21 -26 -205 -32 -260 -9 -436
-22 -530 -40 -13 -3 -42 -7 -65 -10 -81 -12 -262 -56 -374 -91 -244 -77 -466
-190 -635 -324 -50 -39 -187 -181 -231 -239 -151 -199 -224 -482 -179 -695 37
-169 164 -327 325 -404 46 -22 102 -43 124 -47 22 -4 51 -9 65 -12 55 -12 207
-3 285 17 122 31 287 116 393 203 119 97 253 262 268 329 25 112 14 133 -90
182 -85 39 -100 59 -99 131 1 115 104 228 298 328 87 45 172 80 250 102 33 10
66 20 72 22 11 5 -17 -63 -97 -232 -64 -134 -131 -290 -205 -470 -207 -510
-242 -590 -310 -730 -169 -345 -325 -515 -547 -597 -176 -64 -328 -36 -434 80
-73 79 -68 158 18 291 47 73 62 105 65 140 5 56 -19 107 -64 137 -76 51 -289
62 -533 28 -185 -26 -412 -114 -580 -227 -337 -224 -548 -542 -587 -885 -9
-77 -9 -244 0 -317 43 -339 277 -660 604 -827 215 -111 456 -151 748 -125 256
23 511 105 731 237 296 177 559 445 754 769 141 235 379 783 498 1151 17 52
48 147 69 210 l38 115 85 -2 c213 -6 332 -44 415 -130 94 -98 112 -299 40
-443 -50 -98 -137 -169 -207 -170 -31 0 -82 40 -104 81 -8 16 -17 48 -20 72
-10 74 -24 92 -72 95 -55 4 -117 -25 -171 -81 -38 -40 -91 -112 -91 -123 0 -3
-8 -18 -18 -32 -24 -34 -89 -196 -96 -239 -4 -18 -10 -42 -15 -55 -5 -13 -12
-50 -16 -83 -3 -32 -8 -62 -11 -66 -6 -11 -6 -178 1 -214 15 -86 31 -136 59
-189 65 -124 185 -222 333 -272 68 -23 95 -27 218 -28 165 -1 214 5 315 39
171 58 309 145 446 282 214 215 349 447 418 720 33 132 37 165 40 328 9 411
-136 641 -467 747 l-98 31 58 19 c137 46 292 133 373 210 230 217 259 605 65
864 -80 106 -186 188 -339 260 -84 39 -257 97 -331 110 -16 3 -47 9 -67 13
-20 5 -39 6 -43 3 -3 -3 -5 0 -5 6 0 19 153 168 210 204 114 71 207 97 321 89
28 -2 64 -48 77 -98 21 -79 41 -97 104 -97 108 1 186 30 278 102 247 195 202
482 -92 583 -69 24 -245 33 -348 19z m-707 -1328 c106 -57 149 -127 153 -249
6 -147 -56 -283 -172 -377 -100 -82 -198 -120 -338 -131 l-67 -6 5 28 c34 189
144 504 242 694 l45 87 42 -10 c22 -5 63 -21 90 -36z"/>
<path d="M1631 4774 c-12 -32 -33 -88 -46 -124 l-25 -65 -145 1 c-80 0 -145
-1 -145 -2 0 -1 48 -33 107 -70 59 -38 111 -72 117 -76 6 -4 -7 -51 -33 -123
-24 -64 -42 -118 -39 -120 2 -2 55 29 118 70 102 66 116 72 131 60 8 -8 18
-15 22 -15 3 0 47 -27 98 -60 51 -33 94 -58 95 -57 2 2 -17 56 -41 120 l-43
118 66 43 c37 23 88 56 114 72 26 16 47 32 48 35 0 3 -61 5 -136 5 -75 -1
-140 1 -144 4 -5 3 -29 59 -53 124 l-44 120 -22 -60z"/>
<path d="M6145 1369 c-15 -41 -33 -87 -40 -104 -7 -16 -20 -52 -30 -80 -10
-27 -22 -61 -28 -75 l-10 -25 -208 0 c-114 0 -205 -3 -203 -7 2 -3 75 -51 160
-105 86 -54 159 -104 161 -111 5 -11 -16 -74 -82 -247 -13 -33 -26 -71 -30
-85 -7 -23 -7 -24 16 -9 13 9 80 51 149 94 69 44 136 87 150 98 15 11 26 14
28 8 2 -6 8 -11 12 -11 5 0 79 -45 164 -100 86 -54 156 -94 156 -87 0 7 -21
66 -46 132 -68 179 -77 207 -66 214 5 3 82 52 170 109 89 57 162 105 162 106
0 1 -96 2 -212 2 l-213 -1 -66 179 -66 179 -28 -74z"/>
<path d="M3955 1315 c-15 -41 -32 -75 -39 -76 -6 -1 -46 -1 -88 -1 -43 0 -78
-3 -78 -6 0 -4 32 -26 70 -50 39 -24 70 -44 70 -45 0 -1 -13 -37 -29 -79 -16
-43 -27 -78 -24 -78 2 0 35 20 73 45 38 25 73 45 78 45 5 0 40 -20 78 -44 38
-25 70 -43 71 -42 4 4 -44 137 -52 144 -3 3 31 29 75 57 l81 52 -83 -1 c-46
-1 -90 2 -99 6 -15 7 -65 124 -61 141 1 4 -2 7 -7 7 -4 0 -21 -34 -36 -75z"/>
</g>
</svg>
