<?xml version="1.0" standalone="no"?>
<!DOCTYPE svg PUBLIC "-//W3C//DTD SVG 20010904//EN"
 "http://www.w3.org/TR/2001/REC-SVG-20010904/DTD/svg10.dtd">
<svg version="1.0" xmlns="http://www.w3.org/2000/svg"
 width="700.000000pt" height="700.000000pt" viewBox="0 0 700.000000 700.000000"
 preserveAspectRatio="xMidYMid meet">
<metadata>
Created by potrace 1.14, written by Peter Selinger 2001-2017
</metadata>
<g transform="translate(0.000000,700.000000) scale(0.100000,-0.100000)"
fill="#000000" stroke="none">
<path d="M5825 6389 c-149 -19 -188 -28 -300 -64 -147 -48 -338 -156 -485
-274 -133 -107 -318 -302 -446 -471 l-49 -65 -130 -1 c-157 -1 -333 -11 -436
-24 -41 -6 -93 -12 -115 -15 -73 -8 -258 -46 -364 -75 -363 -100 -663 -242
-937 -446 -100 -74 -276 -251 -328 -329 -22 -33 -43 -62 -46 -65 -11 -10 -87
-176 -103 -225 -45 -141 -57 -333 -30 -455 45 -194 196 -370 398 -460 234
-105 549 -78 791 68 124 74 260 192 355 307 62 74 124 193 135 258 3 16 8 33
10 37 2 4 0 23 -6 43 -9 32 -18 40 -94 76 -150 73 -172 140 -96 293 88 180
284 317 521 364 14 3 53 11 88 18 60 12 71 10 54 -9 -5 -6 -16 -28 -24 -50 -9
-22 -27 -65 -41 -95 -101 -223 -135 -298 -178 -389 -27 -57 -49 -105 -49 -107
0 -2 -9 -23 -19 -47 -26 -59 -100 -253 -169 -447 -162 -453 -234 -614 -358
-801 -169 -257 -426 -416 -672 -417 -68 0 -90 4 -139 28 -95 46 -155 112 -177
197 -23 87 -7 141 74 254 49 67 60 89 60 122 0 187 -304 253 -725 157 -496
-114 -967 -516 -1144 -980 -27 -68 -58 -189 -67 -255 -3 -27 -8 -53 -11 -57
-2 -4 -4 -67 -4 -140 -1 -118 8 -215 25 -285 4 -13 8 -31 10 -40 2 -10 15 -51
29 -90 102 -290 364 -560 682 -703 132 -59 310 -105 454 -117 140 -12 413 -5
496 12 11 3 36 7 55 9 146 21 338 78 492 148 288 131 545 335 755 599 55 69
173 237 173 245 0 3 16 30 36 61 20 31 71 129 114 217 142 293 252 622 330
993 25 120 78 338 205 853 42 168 104 387 164 575 45 138 204 550 220 567 10
11 194 -55 257 -93 61 -37 165 -133 206 -189 76 -106 120 -250 120 -395 1
-128 -20 -215 -79 -334 -78 -158 -199 -261 -305 -261 -72 0 -136 51 -163 132
-32 93 -97 120 -176 70 -98 -61 -192 -250 -223 -452 -29 -182 6 -368 93 -494
72 -104 209 -215 320 -257 212 -82 497 -70 716 31 221 102 451 322 594 570 38
66 101 203 124 270 68 197 88 319 93 545 4 191 -7 291 -46 440 -124 465 -510
832 -1005 955 -98 24 -101 24 -162 35 l-43 7 32 41 c18 23 67 77 111 120 100
98 203 152 323 169 132 19 204 -14 219 -100 4 -23 17 -56 29 -74 21 -31 25
-33 89 -34 88 -2 137 9 224 51 114 56 217 166 254 271 74 211 -41 398 -282
460 -65 17 -224 24 -304 13z"/>
<path d="M4495 1804 l-340 -171 0 -343 0 -343 335 -168 c184 -93 341 -169 348
-169 20 0 676 329 683 343 3 6 5 163 5 346 l-1 335 -301 150 c-166 83 -321
160 -345 171 l-44 20 -340 -171z"/>
</g>
</svg>
