<?xml version="1.0" encoding="UTF-8" standalone="no"?><!DOCTYPE svg PUBLIC "-//W3C//DTD SVG 1.1//EN" "http://www.w3.org/Graphics/SVG/1.1/DTD/svg11.dtd"><svg width="100%" height="100%" viewBox="0 0 680 680" version="1.1" xmlns="http://www.w3.org/2000/svg" xmlns:xlink="http://www.w3.org/1999/xlink" xml:space="preserve" xmlns:serif="http://www.serif.com/" style="fill-rule:evenodd;clip-rule:evenodd;stroke-linejoin:round;stroke-miterlimit:2;"><g><path d="M470.142,488.04l66.684,33.322l0,66.645l-66.684,33.323l-66.684,-33.323l0,-66.645l66.684,-33.322Z" style="fill:#60a860;"/><path d="M429.669,144.292l11.876,0c20.982,-28.948 42.756,-50.455 65.322,-64.522c22.566,-14.066 46.517,-21.1 71.854,-21.1c13.856,0 25.04,3.16 33.551,9.48c8.512,6.32 12.768,14.78 12.768,25.381c-0,11.008 -4.949,20.998 -14.846,29.968c-9.897,8.969 -21.18,13.454 -33.849,13.454c-3.167,0 -5.344,-0.305 -6.532,-0.917c-1.188,-0.612 -2.375,-2.141 -3.563,-4.587c-0.396,-1.223 -0.792,-2.548 -1.188,-3.975c-0.395,-1.427 -0.791,-3.16 -1.187,-5.199c-0,-0.407 -0.099,-0.713 -0.297,-0.917c-0.198,-0.204 -0.297,-0.306 -0.297,-0.306c-0.792,-1.223 -2.177,-2.344 -4.157,-3.364c-1.979,-1.019 -3.959,-1.732 -5.938,-2.14l-6.235,-0c-0.99,-0 -1.881,0.204 -2.673,0.611c-8.313,0.816 -16.429,4.078 -24.347,9.786c-7.918,5.708 -15.044,13.251 -21.378,22.629c37.214,5.3 66.905,20.284 89.075,44.951c22.17,24.667 33.255,54.737 33.255,90.209c-0,39.549 -11.778,74.002 -35.333,103.358c-23.556,29.356 -51.565,44.034 -84.028,44.034c-19.794,0 -36.52,-6.217 -50.178,-18.653c-13.659,-12.436 -20.488,-27.827 -20.488,-46.175l0,-4.892c0.792,-13.048 3.959,-25.076 9.502,-36.084c5.542,-11.009 11.48,-17.328 17.815,-18.959l3.563,-0c1.583,-0 2.969,0.407 4.156,1.223c1.188,0.815 2.178,2.039 2.97,3.669c0.396,0.816 0.791,1.733 1.187,2.753c0.396,1.019 0.792,2.14 1.188,3.363c1.188,3.262 3.167,5.912 5.938,7.951c2.772,2.039 5.741,3.058 8.908,3.058c9.105,-0 17.518,-5.606 25.238,-16.819c7.719,-11.212 11.975,-23.546 12.767,-37.001l0,-3.669c0,-16.717 -5.146,-31.089 -15.44,-43.117c-10.293,-12.028 -24.149,-19.877 -41.568,-23.546c-5.938,14.678 -10.59,26.196 -13.955,34.555c-3.365,8.358 -6.037,16.207 -8.017,23.546c-0.396,1.223 -0.791,2.446 -1.187,3.669c-0.396,1.223 -0.792,2.243 -1.188,3.058c-0.396,1.223 -0.693,2.344 -0.891,3.364c-0.198,1.019 -0.495,1.936 -0.89,2.752c-2.376,7.747 -4.85,16.615 -7.423,26.604c-2.574,9.989 -5.444,21.1 -8.611,33.331l-11.877,48.927l-5.344,25.075c-16.232,69.313 -43.053,122.012 -80.464,158.095c-37.412,36.084 -83.632,54.126 -138.66,54.126c-37.61,-0 -69.281,-11.417 -95.013,-34.249c-25.733,-22.833 -38.6,-50.966 -38.6,-84.399c0,-38.734 15.638,-72.677 46.913,-101.829c31.275,-29.152 67.895,-43.729 109.859,-43.729c9.897,0 17.914,1.733 24.05,5.199c6.137,3.466 9.205,8.052 9.205,13.761l-0,3.058c-0.396,1.223 -1.287,2.854 -2.672,4.892c-1.386,2.039 -4.058,5.708 -8.017,11.009c-0.396,0.815 -0.891,1.733 -1.485,2.752c-0.594,1.019 -0.891,1.937 -0.891,2.752c-0.395,1.223 -0.692,2.344 -0.89,3.364c-0.198,1.019 -0.297,1.936 -0.297,2.752c-0,7.747 3.167,14.474 9.501,20.182c6.334,5.708 13.856,8.562 22.566,8.562c3.563,0 7.027,-0.407 10.392,-1.223c3.365,-0.815 7.027,-1.835 10.986,-3.058c7.126,-2.854 14.153,-6.829 21.081,-11.926c6.928,-5.096 12.965,-11.11 18.112,-18.041c2.375,-3.262 4.75,-6.728 7.126,-10.397c2.375,-3.67 4.552,-7.543 6.532,-11.62c3.563,-6.116 7.027,-13.455 10.392,-22.018c3.365,-8.562 7.225,-18.755 11.58,-30.579c3.959,-10.601 7.027,-19.163 9.204,-25.687c2.177,-6.523 4.454,-12.231 6.829,-17.124c0,-0.815 0.198,-1.529 0.594,-2.14c0.396,-0.612 0.594,-1.326 0.594,-2.141c2.771,-6.931 6.235,-14.78 10.392,-23.546c4.157,-8.766 10.194,-21.915 18.112,-39.447c0.396,-0.816 0.989,-2.345 1.781,-4.587c0.792,-2.243 1.98,-4.791 3.563,-7.645c-1.583,0.408 -2.969,0.713 -4.157,0.917c-1.187,0.204 -2.573,0.51 -4.156,0.918c-7.126,1.223 -13.065,2.65 -17.815,4.281c-4.751,1.631 -9.304,3.669 -13.659,6.116c-1.187,0.815 -2.276,1.427 -3.266,1.834c-0.989,0.408 -1.88,1.02 -2.672,1.835c-3.563,2.446 -7.027,5.402 -10.392,8.868c-3.365,3.466 -6.037,7.033 -8.017,10.703c-1.583,2.854 -2.87,5.606 -3.86,8.256c-0.989,2.651 -1.484,4.995 -1.484,7.034c-0,2.854 0.396,5.096 1.187,6.727c0.792,1.631 2.178,3.262 4.157,4.893c1.584,1.223 3.365,2.344 5.345,3.363c1.979,1.02 4.553,2.141 7.72,3.364c1.583,0.408 2.771,1.427 3.563,3.058c0.791,1.631 1.187,3.466 1.187,5.504c-0.396,4.078 -1.781,8.766 -4.157,14.067c-2.375,5.3 -6.136,11.008 -11.282,17.124c-11.085,13.047 -23.358,23.139 -36.818,30.274c-13.46,7.135 -27.514,10.702 -42.162,10.702c-19.794,0 -36.62,-6.319 -50.476,-18.959c-13.856,-12.639 -20.784,-28.337 -20.784,-47.092c0,-39.141 22.764,-72.88 68.291,-101.217c45.527,-28.337 99.962,-42.506 163.304,-42.506Z" style="fill:#60a860;fill-rule:nonzero;"/></g></svg>
