<?xml version="1.0" encoding="UTF-8" standalone="no"?>
<!DOCTYPE svg PUBLIC "-//W3C//DTD SVG 1.1//EN" "http://www.w3.org/Graphics/SVG/1.1/DTD/svg11.dtd">
<svg viewBox="0 0 556 556" xmlns="http://www.w3.org/2000/svg" xml:space="preserve" fill-rule="evenodd" clip-rule="evenodd" stroke-linejoin="round" stroke-miterlimit="2">
  <path d="m302.21 246.751 6.038-14.657c.575-1.48 1.15-2.887 1.725-4.219a93.368 93.368 0 0 1 1.725-3.776c0-.296.072-.592.215-.888.144-.296.216-.592.216-.888 2.3-5.034 4.816-10.512 7.547-16.434 2.731-5.922 6.541-14.213 11.429-24.872-15.813 4.441-28.176 9.919-37.089 16.433-8.913 6.515-13.369 13.325-13.369 20.431 0 2.369.647 4.368 1.941 5.996 1.294 1.629 3.234 2.887 5.822 3.776 1.437.592 2.659 1.11 3.666 1.554a45.16 45.16 0 0 1 2.371 1.111c1.15.888 1.869 1.776 2.157 2.665.287.888.431 2.072.431 3.553 0 3.553-1.366 7.476-4.097 11.77-2.731 4.293-6.541 8.957-11.428 13.991-6.901 6.514-14.16 11.77-21.779 15.767s-15.31 6.588-23.072 7.773c-1.15 0-2.372.074-3.666.222a36.09 36.09 0 0 1-4.097.222c-14.088 0-25.948-4.59-35.579-13.769s-14.447-20.579-14.447-34.2c0-19.838 7.762-37.827 23.288-53.964 15.525-16.138 36.657-28.204 63.395-36.199 12.363-3.849 25.66-6.588 39.892-8.217 14.231-1.628 30.691-2.442 49.379-2.442 14.375-20.135 29.972-35.237 46.792-45.304 16.819-10.068 34.716-15.101 53.691-15.101 10.063 0 18.401 2.443 25.013 7.328 6.613 4.886 9.919 11.178 9.919 18.877v1.332c-.575 7.107-4.312 13.695-11.212 19.765-6.9 6.07-14.376 9.253-22.426 9.549h-1.294c-2.3 0-3.881-.296-4.743-.888-.863-.592-1.725-1.925-2.588-3.997a8.098 8.098 0 0 1-.647-1.999 20.973 20.973 0 0 0-.647-2.443c-.575-2.369-1.581-4.071-3.019-5.108-1.437-1.036-3.593-1.554-6.469-1.554-2.012 0-4.168.222-6.468.666a30.04 30.04 0 0 0-6.469 1.999c-4.6 1.776-9.057 4.441-13.369 7.995-4.313 3.553-8.482 7.846-12.507 12.88 23.576 3.849 41.617 11.178 54.123 21.986 12.507 10.807 18.76 24.206 18.76 40.195 0 13.917-4.097 25.465-12.291 34.644-8.194 9.18-20.772 16.286-37.735 21.32 15.525 3.257 27.025 9.697 34.501 19.32 7.475 9.624 11.212 22.874 11.212 39.752 0 29.018-9.703 54.927-29.11 77.727-19.406 22.8-41.472 34.2-66.198 34.2-15.238 0-27.529-4.294-36.873-12.881-9.344-8.587-14.016-19.987-14.016-34.2v-3.775c0-1.332.144-2.739.432-4.219 1.15-12.141 4.384-23.54 9.703-34.2 5.319-10.66 10.997-17.322 17.035-19.987.862-.592 1.725-.962 2.587-1.11a15.28 15.28 0 0 1 2.588-.222c2.012 0 3.45.148 4.312.444.863.296 1.582 1.628 2.157 3.997 0 .888.143 1.925.431 3.109.287 1.185.575 2.517.862 3.998.575 2.072 1.797 3.997 3.666 5.774 1.869 1.776 3.81 2.664 5.822 2.664h1.078c.432 0 .791-.148 1.078-.444 4.313-.888 8.266-4.071 11.86-9.549 3.594-5.478 5.535-11.326 5.822-17.544v-1.333c0-10.067-3.306-17.618-9.919-22.651-6.612-5.034-16.675-7.551-30.188-7.551h-6.9a784.16 784.16 0 0 0-4.313 13.769 786.953 786.953 0 0 1-4.312 13.769 970.873 970.873 0 0 1-13.585 35.976c-4.744 11.844-9.703 23.096-14.879 33.756-14.95 31.683-34.86 56.333-59.729 73.951-24.869 17.618-52.254 26.427-82.155 26.427-27.026 0-49.595-8.587-67.708-25.761S69.33 414.493 69.33 389.324c0-28.129 11.284-52.188 33.854-72.174 22.569-19.987 49.523-29.981 80.861-29.981 9.2 0 15.885 1.037 20.053 3.109 4.169 2.073 6.254 5.478 6.254 10.216v3.553c-.288 1.184-1.007 2.591-2.157 4.219-1.15 1.629-3.162 4.664-6.037 9.106a12.792 12.792 0 0 0-1.941 3.997c-.431 1.48-.647 3.257-.647 5.33 0 4.737 2.516 9.031 7.547 12.88 5.032 3.85 10.854 5.774 17.466 5.774 1.725 0 3.45-.148 5.175-.444a33.266 33.266 0 0 0 5.176-1.332c5.75-1.481 11.428-4.22 17.034-8.217a61.7 61.7 0 0 0 14.448-14.435c4.6-6.218 8.84-13.103 12.722-20.653 3.881-7.551 7.547-15.472 10.997-23.762l6.037-14.658 6.038-15.101Zm50.026-3.109h2.157c12.65 0 23.216-3.849 31.697-11.548 8.482-7.698 12.722-17.026 12.722-27.981 0-6.515-1.94-11.845-5.822-15.99-3.881-4.145-9.559-6.958-17.034-8.439-4.026 6.81-7.691 14.361-10.998 22.652-3.306 8.291-6.54 18.062-9.703 29.314a123.053 123.053 0 0 0-1.509 5.996 124.26 124.26 0 0 1-1.51 5.996Z" fill="#60a860" fill-rule="nonzero"/>
  <path d="m162.21 39.715 10.552 28.548h34.147l-27.626 17.644 10.553 28.547-27.626-17.643-27.626 17.643 10.552-28.547-27.626-17.644h34.148l10.552-28.548ZM131.3 172l7.297 19.741h23.613l-19.103 12.2 7.296 19.74-19.103-12.2-19.103 12.2 7.297-19.74-19.103-12.2h23.613L131.3 172Zm358.939 269.23 10.553 28.547h34.147l-27.626 17.644 10.552 28.548-27.626-17.644-27.625 17.644 10.552-28.548-27.626-17.644h34.147l10.552-28.547Zm-173.499 3.568 4.772 12.911h15.444l-12.494 7.979 4.772 12.911-12.494-7.979-12.494 7.979 4.773-12.911-12.494-7.979h15.443l4.772-12.911Z" fill="#60a860"/>
</svg>
